<svg width="30" height="30" viewBox="0 0 30 30" fill="none" xmlns="http://www.w3.org/2000/svg">
<path d="M15.3998 29.2001C13.4887 29.0223 11.672 28.5334 9.9498 27.7334C8.22758 26.9334 6.70536 25.839 5.38314 24.4501C4.06092 23.0612 2.98869 21.4056 2.16647 19.4834C1.34425 17.5612 0.888694 15.389 0.799805 12.9667C3.04425 12.9667 5.04425 13.2834 6.7998 13.9167C8.55536 14.5501 10.0498 15.5279 11.2831 16.8501C12.5165 18.1723 13.4776 19.8556 14.1665 21.9001C14.8554 23.9445 15.2665 26.3779 15.3998 29.2001ZM14.9665 16.7667C14.2554 15.6112 13.4998 14.6723 12.6998 13.9501C11.8998 13.2279 10.8776 12.5667 9.63314 11.9667C9.74425 11.0779 9.95536 10.1223 10.2665 9.10008C10.5776 8.07786 10.9665 7.05564 11.4331 6.03342C11.8998 5.01119 12.4331 4.00008 13.0331 3.00008C13.6331 2.00008 14.2665 1.05564 14.9331 0.166748C15.6442 1.05564 16.3054 2.00008 16.9165 3.00008C17.5276 4.00008 18.072 5.02786 18.5498 6.08341C19.0276 7.13897 19.422 8.17786 19.7331 9.20008C20.0442 10.2223 20.2554 11.2001 20.3665 12.1334C19.3665 12.4445 18.3942 13.0223 17.4498 13.8667C16.5054 14.7112 15.6776 15.6779 14.9665 16.7667ZM18.3665 28.4001C18.2331 26.5779 18.0387 24.9334 17.7831 23.4667C17.5276 22.0001 17.1998 20.789 16.7998 19.8334C17.8665 17.6334 19.6165 15.8556 22.0498 14.5001C24.4831 13.1445 26.8665 12.6112 29.1998 12.9001C28.8442 17.0779 27.7498 20.4334 25.9165 22.9667C24.0831 25.5001 21.5665 27.3112 18.3665 28.4001Z" fill="#423C66"/>
</svg>
